<?xml version="1.0" encoding="UTF-8"?>
<svg xmlns="http://www.w3.org/2000/svg" version="1.1" viewBox="0 0 1488 544">
  <defs>
    <style>
      .cls-1 {
        fill: #faf3e9;
      }
    </style>
  </defs>
  <!-- Generator: Adobe Illustrator 28.6.0, SVG Export Plug-In . SVG Version: 1.2.0 Build 709)  -->
  <g>
    <g id="Layer_1">
      <g>
        <g>
          <path class="cls-1" d="M399.3,288.2c2.5.2,5.1-2.5,7.1-6.1,7.4-13.9-5.8-39.7-11.5-53.4-4.3-9.8-7.3-20.2-12.9-29.4-2.4-4-4.9-7.8-7.3-11.7-6.5-11.7-15.9-18.4-29.5-19.7-18-2.2-21.6,3.2-4.8,9.2,6.2,1.6,12.6,3.7,17.7,7.4,4.5,3.2,7.9,7.7,10.9,12.3,6.1,8.9,11.2,18.1,14.2,28.3,4.1,11.7,9,23.2,12.7,35,1.6,4.7,2.9,9.6,2.8,14.5.3,3.5-2.8,12.2.3,13.3h0ZM270.2,496.7c6.3.1,12.2-2.1,17.6-5.2,10.5-6,20.1-13.9,31-19.1,9.3-4.7,19.6-6.6,29.8-8.3,14.3-2.1,21.2-13.9,32-21.7,3.7-2.8,7.7-5.1,12-6.8,8.2-3.3,17.3-5,24.3-10.7,6.1-4.9,11.5-10.9,15.3-17.7,3.7-6.7,5.4-14.4,8.6-21.4,3.3-7.2,8.3-13.4,10.9-20.9,3.2-8.9,3.7-18.7,6.3-27.9,8-21.4,1.6-25.5-9.3-4.8-3.8,8.6-5,18.2-8.1,26.9-2.2,5.8-5.2,11.2-7.4,17-5.7,16.5-12.3,34.6-29,42.9-13.7,7.3-28.8,12-41,21.9-4.7,3.8-9.1,8.4-14.6,11.1-4.8,2.6-10.4,3.5-15.7,4.8-5.6,1.4-11.2,3.3-16.4,5.8-16,7.1-29.3,21.6-47.3,23.3-11.3.3-22.2-4.9-31.8-10.3-2.7-1.5-5.8-3.7-8.8-4.2-4.9-.6-1.2,4.8.7,6.5,3.5,3.5,7.8,6.2,11.9,8.8,8.7,5.3,18.2,9.7,28.5,9.9h.2ZM346.7,401c-4.9,3.1-6,7.6-.2,6.7,2.9-.4,8.3-5.8,16.4-9.2,8.2-3.4,15-3.4,22.7-8.6,21-14.3,21.2-42.6,32.8-63.4,5.5-9.5,12.7-17.9,19.7-26.3,10.7-12.3,21.4-24.3,13.7-41.3-6.5-14.8-15.3-28.7-17.8-44.9-2.9-13.2-4.1-27.6-11.9-39.1-4.2-6.1-10.5-10.6-16-15.7-6.1-5.4-11.2-12.1-18-16.8-6-4.2-13.2-6.6-19.7-10.1-4.8-2.5-9.3-5.5-14-8.2-11-6.1-23-10.4-34.3-16.2-10.8-5-22.1-11.6-34.4-10.4-9.1.8-17.5,4.7-25.5,9-15.8,8.2-29.6,19.3-43,30.8-21,14.7-43.6,19-58.2,42.6-8.7,11.3-11.9,24.8-15.7,38.2-1.7,5.1-4.2,9.8-6.2,14.8-3.4,7.9-4.3,16.6-7.3,24.6-2.4,6.7-5.9,13.4-5.4,20.6,1.8,15.9,11.9,29.2,17.4,43.9,2.5,6.8,2.7,14.2,5,21.1,2.1,6.6,7.1,12,10.8,18.1,2.7,4.4,5,9.3,8.4,13.2,6.8,7.9,18.2,9.1,26.5,14.9,10.4,6.7,18.7,16.9,29.4,23.4,17.7,11.2,39.9,13,60.2,9.6,3.8.4,30.5-9.6,26.2-1.7-6,6.7-16,9.7-24.4,12.6-17.1,5.1-35.7,3.3-51.8-4-15.4-5.7-26.9-17.3-39.7-27-10.2-8.3-24.8-10.4-33.9-19.5-3.9-4.1-6.7-9-9.9-13.5-4.3-6.1-9.1-11.8-11.5-18.7-2.7-8-2.2-16.8-5.1-24.8-2.3-6.8-6.4-12.9-9.6-19.3-3.6-7.1-6.2-14.6-8.6-22.1-4.9-12.4-1.2-21.9,5.1-32.8,3-6.1,4.3-13,6.8-19.3,3.9-9.2,7.8-18.4,9.4-28.3,2.6-14.8,11.2-27.5,20.4-39.2,6.2-7.9,15.1-12.5,23.2-18.2,7.6-5.4,14.1-12.5,22-17.5,9.3-6.2,20.2-9.6,29.3-16.2,17.5-12.2,36.1-28.8,59-25.2,3.7.2,4.5-.6,2.7-2.2-20.7-16.3-43.2,5.1-59.7,17.6-11.8,8.9-28,8.5-39.9,17.4-6.8,4.8-12.3,11.2-18.9,16.2-4.4,3.4-9.1,6.2-13.5,9.5-11,7.9-18.7,19.3-25.6,30.7-19.8,28.8-9.1,49.6-29.1,75.2-6.3,9.1-17.6,15.7-21.9,25.6-5.8,15.1,11.8,32.4,15.7,47.2,10.2,31.8.8,37.8,26.3,67.5,18.8,28.2,27.9,24.7,54.4,40.3,21.9,12.3,40.9,31.4,66.8,34.9,33.1,9.7,40.8-2.6,68.6-15.4,9-3.7,18.8-5.4,27.5-10.1,8.3-4.3,15-11.1,22.4-16.6,8.7-6.7,19.9-8.9,29.6-13.9,19.6-9.3,25.7-31.6,33.8-50.1,4.4-10.5,6.9-22,13.1-31.6,4.2-6.7,10.1-12,15.8-17.5,7.3-7.3,14.5-14.9,21.2-22.8,22-25.4-16.5-40.5-21.7-78.5-1.3-6.7-1.5-13.7-2.9-20.4-1.8-8.6-6.1-16.1-8.1-24.6-2.4-11.7-4.4-23.7-10.3-34.2-9.9-19.8-32.6-15.3-50.5-21-8.8-2.8-16-9-24.5-12.3-10.8-4-22.9-4.7-33-10.7-8.1-4.4-14.4-11.5-21.9-17.1-10-7.2-21.2-15.5-33.9-15.9-22.3.6-34.7,24-54.7,31.1-11.4,4.6-24.1,2.5-36,4.7-12.4,2-22.4,10.4-34,15-38.6,12.4-32.7,23.2-51.2,53.6-23.4,29.7-9.6,38-24.2,63.7-6.7,10-14.1,20.2-23.6,27.7-10,7-12.7.2-5.2-7.9,12.2-12.2,23-26.4,25.3-44,1.5-8.6,1.1-17.8,4-25.9,3.2-9.9,11.8-16.6,17.2-25.2,6.1-9.4,8.9-20.8,15.4-29.9,9.5-14.3,27.5-16.7,41.7-24.2,9.5-4.9,18-12.1,28.5-15,10.1-3.1,20.9-2.9,31.2-5.3,10.8-2.4,20.6-7.6,29.5-14,10.3-7.4,20.7-17,34-17.5,21.9-1.2,36.2,18.1,53.7,27.6,5.8,2.9,12,4.6,17.8,7.4,9.2,5.7,20.9,5.4,29.9,10.2,3.3,1.8,6.3,4.1,9.2,6.3,16.6,9.3,38.4,6.1,54,17.9,15.7,10.7,18.7,30.4,22.9,47.6,3.8,11.1,9.5,21.2,8.7,33.3-.2,36.2,34,57,33.3,83.3-.5,10.3-7.7,18.6-13.1,26.8-8.4,13.8-15.3,29.1-18.7,45-1.6,7.8-1.5,15.9-3.6,23.6-1.9,7.4-6.2,13.9-9.4,20.8-3.5,7.2-5.5,15.2-9.5,22.1-6.5,10.7-15.5,20.5-26.6,26.4-9.3,4.7-20.5,5.6-29.1,11.8-8.6,5.8-14.1,15.6-23.7,19.9-12.4,5.1-26.6,4.8-38.9,10.7-11.1,4.2-20.4,11.7-29.9,18.5-21.3,16.1-48.3,6.1-66-10.7-8.9-8.3-15.8-18.5-24.9-26.8-8.6-8.3-17.8-15.8-28.5-21-16.9-9.2-37.9-13.7-51-28.7-5-6-9-12.8-13.7-19-6-8.2-12.9-15.9-15.6-25.4-2.6-9-2.5-18.5-4.6-27.6-1.2-5.9-3.1-11.6-5.7-17-6.1-15.6-25.2-30.1-18.8-48.1,5.7-11.5,16.2-19.9,24.3-29.6,13-12.8,15.3-27.7,18.7-44.6,2.7-11.1,8.1-21.3,13.8-31.2,6.2-10.8,13.3-21.4,23-29.4,5.1-4.2,11-7.6,16-12.1,7.3-6.3,11.7-15.3,19.1-21.5,9.2-8.3,22.3-8,33.5-11.6,21-5.9,38-32.8,60.3-30.1,22.8,3.4,34.5,24.2,54.2,32.9,6.7,2.9,13.8,4.8,20.4,7.7,8.5,3.7,15.8,9.9,24.2,14,6.6,3.4,14.1,5.3,20.1,9.7,7.1,4.9,11.6,12.7,18.2,18.3,5.7,5.1,12.7,8.9,17.5,14.8,6.6,9,11.7,20,13.5,30.8,1,10.2.1,20.7,4.7,30.2,5.3,13.8,14.3,25.6,20.9,38.6,5.5,11.7-2.8,22.6-10.5,31-7,8-13.8,16.3-21,24.1-8.7,8.7-15.2,19.3-17.9,31.5-5.3,21.4-15.2,46.6-37.9,54.2-11.3,3.2-24.7,2.7-32.9,12.6-14.5,19.3-21.5,18.2-42.2,27.2-14.3,6.6-27.8,17.8-44.4,16.3-29.4-1.5-52.9-20.7-76.8-35.7-10.5-6.7-22.2-11-32.7-17.6-12.7-9.2-22.1-23.1-31.2-35.8-8.8-12.5-6.8-28.4-11.3-42.3-3.8-14.7-16.1-26.7-17.6-41.9-.5-4.6,3.9-14.4,8.8-9.3,3.1,4.9,4,14.2,7.3,20.4,4.9,10.7,11.5,20.9,13.6,32.6,2.2,10.9,1.6,22.6,7.8,32.3,3.1,5.2,7.4,9.7,11.1,14.5,5.1,6.5,9.4,13.8,16.1,18.6,5.1,3.8,11.4,6.1,17.1,9.3,6.3,3.4,11.8,7.9,17.5,12.2,21.8,15.3,48.9,30.6,76.3,28.4,17.5-2.1,32.9-11.9,49.2-18.1,3.6-1.8,6.4-4.1,7.4-7.9,2.1-11.3,5.5-18.4,14.5-24.7,8.5-5.6,15.6-10.7,23.2-16.6,10.6-7.4,19.1-17.3,23.1-29.7,10.3-39.8,15.5-35.7,39-65.3,8.1-10.6,4.6-23.5-.6-34.5-4.4-10.2-9-20.3-11.6-30.9-2.5-9.5-3.6-19.5-8.4-28.2-11.8-18.5-29.8-34.3-51.1-40.4-8.2-2.5-16.8-4.6-24-9.3-11.7-7.2-24.8-26.1-39.8-17-7.2,6.1-17.6,3-26.3,5-33,4.5-20.5,30.7-46.5,38.7-16.6,4-32.1,13.5-42.4,27.4-6.2,8.9-6.6,20.2-10.4,30.2-2.5,6.6-6.4,12.6-8.8,19.3-2.8,7.4-2.7,15.7-3.7,23.6-3.7,22.4-.5,28.8,10.1,48,3.1,6.7,5,13.9,7.8,20.7,4.4,9.8,9.9,19.8,16.9,27.7,7.6,8.2,18.7,11.5,28.3,16.7,12.4,6.7,23,17,37,20.6,15,4.1,30.9.7,45.7-2.5,11.7-2.4,20.6-10.3,30-17.2,10.7-6.6,15.9-10.1,23.1-20.1,4.4-4.9,10.8-8.9,14-15.4,5.7-10.7,6.6-23.4,12.1-34.3,4.1-9.9,13.5-18,14.3-29,.3-4.9-1.3-10-2.9-14.7-3.6-11.1-7.4-22.1-11.7-33-4.3-12.7-9.8-24.9-17.7-35.8-13.8-21-26.2-7.8-40-29.9-3-2.4-32.9-42.1-15.8-35,7.8,4.2,12.5,13.1,19.3,18.5,5.5,3.7,12.5,3.7,19.1,3.9,18.8.8,35,12.8,46.6,27,13.1,14.6,13.7,35.2,22.6,52,16,33.9,9.7,41.7-14.7,67.3-19.8,19.7-11.6,32-22.7,49.9-4.3,5.8-10.9,9.2-16.8,13.2-13.3,10.5-24.7,23.2-37.7,34.1-6.3,5.1-14.3,7.2-22.1,8.7-18,4.2-37.4,7.5-55.1,1.1-12.5-4.9-20.8-16.6-33-22.4-14.9-8.4-30.7-16.7-39.9-31.9-4.1-5.8-8.7-11.3-11-17.9-2.6-7-3-14.7-5.8-21.6-8.9-19.8-19.9-30.7-10.7-53.8,2.8-8.2,2-17.4,5.1-25.3,2.7-6.9,7.3-12.8,9.8-19.9,2-5.5,3.3-11.3,5.3-16.8,5.6-18.3,20.9-32.1,37.9-39.8,7.7-3.3,16.3-4.8,22.9-10.1,8.5-6.8,13-17.5,21.8-24.1,11-8.4,32.8-17,46.6-18.7,13.7-.6,25.3,8.7,37,14.6,17.3,10,36.1,16.7,53.2,26.9,11,7.8,21.3,17.6,30.3,27.6,7,8.4,7.6,19.4,9.8,29.7,5.2,20.4,19.2,38.3,22.5,59.4,1.8,20.7-17.5,34.7-29.1,49.3-6.7,7.2-11.1,16.2-12.9,25.9-3.2,15.8-11.4,32.1-24.2,42-3.9,3.1-24.8,14.3-29.9,17.5Z"/>
          <path class="cls-1" d="M368.1,275.9c0-11.1-5.7-21.4-9.9-31.5-5.9-13.5-9.8-29-21.2-39.2-3.7-3.2-8.2-5.2-12.5-7.4-6.7-3.4-12.6-8.4-19.2-12.2-15.2-8.5-27.7-20.4-46.1-13-9.1,3.6-16.8,10.1-25.7,14-9.3,4.4-20.3,4.9-28.6,11.6-13.5,10.2-16.7,24.4-22.8,39.1-4.2,10.5-11.5,20.3-12.4,31.7-.6,9.2,2.4,18.3,5.3,26.9,6,15.4,9.6,32.7,20.5,45.5,6,6.7,13.3,12.4,21.5,16.3,8.3,3.9,17.1,7,24.3,13,6.1,4.8,12.5,9.6,20.1,11.4,17.9,3.8,37.1-7.2,51.8-16.6,3.8-2.5,7.4-5.2,10.9-8.1,9.5-8.3,20.2-16.3,25.7-27.9,3.9-8.9,4-19,8-27.9,3.3-8.5,10.2-16,10.4-25.4v-.2ZM247.3,155.3c-1.7-.9-.8-4.1,0-5.9,3.4-7.9,12.8-10.7,20.8-11,7.4-.3,14.9,1.1,19.5,6.8,2.6,3.2,4.1,7.1,5.7,10.8,2.1,5.1,4.9,9.9,9,13.7,3.8,3.7,8.8,6.2,12.3,9.8,4.5,4.8,8.1,10.5,14.8,12.5,5.1,1.8,10.4,3.4,14.5,6.8,8.2,7,12.8,17.4,17.5,26.9,3.6,8.2,6.8,16.6,10.2,24.8,3.4,8.7,6.7,18.1,6.3,27.5-.4,11.3-8.7,20-12.6,30.3-6.9,18.4-2.4,29.5-19.5,44.1-4.3,4.2-8.1,8.2-13.2,11.2-3,1.8-6.3,3.4-9.2,5.4-3.8,2.6-7.1,5.8-10.7,8.6-7.1,5.4-15.6,8.9-24,11.8-12.7,3.9-27.4,4.5-39.6-1.3-7.4-3.9-13.2-10.5-21.1-13.7-21.8-8.3-31.8-13.7-45.1-33.8-5.6-8.3-7.7-18.1-11.3-27.3-2.9-7.3-7.2-14.2-8.7-21.8-1.5-7.3-1.1-14.9-1-22.3-.2-12.8,6.7-23.8,11.3-35.4,3.4-8.5,5-17.6,9-25.9,4.7-9.8,12.9-17.7,22.5-22.5,6.6-3.3,14.1-4.9,20.8-7.9,4.2-1.8,8.1-4.2,12-6.5,8.2-4.8,17.1-8.2,26.4-9.2,5.5-.8,11.7,1,17-.5,5.5-2.4-.4-7.9-4.8-9.6-6.5-2.7-14.2-2.1-20.5.9-2.6,1-5.8,3.5-8.2,2.7h0Z"/>
          <path class="cls-1" d="M73.9,363.3c0-7.8-.8-15.7-3.9-22.9-6.6-15.7-18.1-28.8-26.3-43.7-7.7-14-2.3-26.8,8.2-37.4,6-6.3,11.9-12.8,18-19,5.3-5.4,10.6-11,14-17.8,5.2-9.7,4.5-21.1,7.6-31.4,5.7-18.1,18.4-33.1,26.4-50.2,9.1-16.8,14.6-17.8,30.7-25.8,3.1-1.8,6.4-4,9.7-5.2,8.1-2.6,4.1,6.9.4,10.6-6.2,7-15.5,10.1-22.1,16.6-9.2,8.5-14,20.3-20.5,30.8-4.7,8.2-9.8,16.3-12.5,25.1-2.3,7.2-2.7,14.9-4.5,22.3-1.9,8.6-6.1,16.5-11.8,23.2-7.3,8.9-15.9,17-23.7,25.5-9,9.8-13.8,18.5-6.1,30.8,4.2,7.1,8.6,14.1,13,21,6.6,9.9,12.5,20.5,14.3,32.4.9,5.6.9,11.3,1.5,16.9.7,9,5.2,16.8,11,23.5,5,6,9.7,12.2,13.6,19,3.8,6.4,7,13.5,12.4,18.7,5.1,5,11.7,8,18.2,10.8,7.3,3.1,14.5,6.3,21.7,9.6,8.6,3.8,17.3,7.8,24.4,14.2,4.6,4.4,11.9,11.3,12.7,17,.2,3.7-3.2,4.4-7.4,3-9.9-3.7-16-13.6-25.1-18.8-9.9-6.2-21.4-9.1-31.9-14.1-9.9-4.4-20-9.3-26.1-18.5-4.2-6-6.7-12.9-10.5-19.2-2.4-4.1-5.3-7.9-8.4-11.6-11-12.9-17.7-16.9-17.1-35.1v-.2Z"/>
          <path class="cls-1" d="M493,210.9c-.3-12.1,10.3-21.3,21.9-16.8,10.7,4.1,11.3,17.4,3.8,25.1-9.3,10.8-25.7,6.8-25.8-8.1v-.2Z"/>
          <path class="cls-1" d="M466,445.4c0,9.6-10.3,17-19.5,14.9-14.7-2.6-14.9-25.4-2.1-30.9,10.2-4.2,22,5,21.6,15.7v.2Z"/>
          <path class="cls-1" d="M491.5,336c-.2-8.9,9-15.5,17.4-13.7,14.4,2.5,20.4,23.4,5.4,29.7-11.5,4.9-22.8-3.9-22.9-15.9v-.2Z"/>
          <path class="cls-1" d="M450.3,85.1c11.3-.3,19.8,12,15,22.3-4.9,10.9-19,10.5-25.6,1.4-7.4-9.8-2.3-23.5,10.5-23.7h.2Z"/>
          <path class="cls-1" d="M411.5,483.6c-.7,15.8-18.8,18.1-26,4.9-4-7.3-1.4-18.4,6.8-21.6,10-3.7,19.7,6.7,19.1,16.5v.2Z"/>
          <path class="cls-1" d="M76,98.9c-.2-10.8,12.7-20.5,22.4-13.7,9.2,6.3,9.3,20.7-1.1,25.9-9.3,5.2-21.3-1.2-21.2-12v-.2Z"/>
          <path class="cls-1" d="M29.7,353.4c-7.4,0-13.9-6.1-14-13.5-.6-15.2,18.7-23.3,26.5-8.6,5.3,10-.4,22.3-12.3,22.2h-.2Z"/>
          <path class="cls-1" d="M74.4,443.2c-.2-10.6,11.8-17.9,21.2-13.2,11.8,5.5,10.1,22-.9,27.2-9.6,4.6-20.4-3.6-20.3-13.8v-.2Z"/>
          <path class="cls-1" d="M271.1,33.4c-8.8-.3-16.3-9.8-13.7-18.5,4.5-14.4,24.6-13.4,28.1.9,1.8,8.4-5.6,18-14.3,17.6h-.2Z"/>
          <path class="cls-1" d="M489,401.9c0,10-11.7,18.7-21.3,15.4-9.2-3.3-10.2-15.1-3.9-21.9,8.3-10.3,24.2-7.9,25.2,6.3v.2Z"/>
          <path class="cls-1" d="M159,61.6c.2,12.7-13.7,19.1-22.4,9.4-6.6-7.3-4.9-22.4,6-24.3,8.7-2,16.5,6.2,16.5,14.7v.2Z"/>
          <path class="cls-1" d="M534.2,271.2c.3,9.9-11.5,17.8-20.4,12.9-5.6-2.9-9.1-9.9-6.6-16,1.9-5,6.8-9.5,11.9-10.3,7.6-1.2,15.1,5.7,15.1,13.2v.2Z"/>
          <path class="cls-1" d="M341.6,511.6c.5,9.9-8.8,18.7-18.2,12.6-9.2-5.5-11.3-19.3-.8-24.6,8.4-4.3,18.8,2.5,19,11.8v.2Z"/>
          <path class="cls-1" d="M32.7,269.8c.7,8.3-7.9,15.8-16,14.3-12.3-2.6-16.4-16-5.4-23.5,8.1-6.3,20.3-1.1,21.4,8.9v.2Z"/>
          <path class="cls-1" d="M33.5,223c-9.4.4-17.8-8.5-12.1-17.5,5.2-8.6,19.9-8.4,23.6,1.4,3.4,7.9-2.8,16-11.2,16.1h-.2Z"/>
          <path class="cls-1" d="M66.7,414.5c-8.7.6-18.7-7.8-15.6-17,3.3-10,15.1-10.9,21.6-3.1,7.2,7.5,5.3,19.1-5.8,20.1h-.2Z"/>
          <path class="cls-1" d="M350.1,45.2c-.2-8.6,8-16.6,16.5-12.9,10.3,4.4,8.4,18.9-.4,24.1-8.2,5-16.4-2.3-16.1-11.1v-.2Z"/>
          <path class="cls-1" d="M215.1,28.5c8.8,0,16.4,10.6,11,18.4-5.2,7.9-18.8,6.9-23-1.3-4.4-7.9,3.2-17.7,11.8-17.2h.2Z"/>
          <path class="cls-1" d="M58.1,137.1c-.1-6.3,3.9-11.8,10.3-12.3,10-1,15.3,9.8,11.2,18.2-7.1,13.1-21.3,8.5-21.5-5.6v-.2Z"/>
          <path class="cls-1" d="M202.4,509.5c0-9.9,10.6-14.8,18.6-9.3,10.4,6.5,7.2,19.7-4.2,22.7-7.6,1.7-14.5-5.8-14.4-13.1v-.2Z"/>
          <path class="cls-1" d="M271,539.3c-14.1-.2-19.7-14.6-5.8-21.7,5.7-2.9,13.1-.7,16.4,4.7,4.8,7.6-1.7,17.1-10.4,17.1h-.2Z"/>
          <path class="cls-1" d="M142,491.4c-8.4,0-13-11.1-9.1-18,6.1-11.4,21.4-7.4,21.8,5.3,0,6.5-6.1,12.6-12.5,12.7h-.2Z"/>
          <path class="cls-1" d="M382.3,69.9c0-7,6.2-14.7,13.7-13.1,10.4,2.4,10.7,18,2.2,22.8-7,4.2-16.2-1.4-15.9-9.5v-.2Z"/>
          <path class="cls-1" d="M334.8,42.9c.3,7.5-7,14.5-14.4,11.2-9.1-3.7-11.9-17.2-2-21.6,7.5-3.4,16.3,1.8,16.3,10.2v.2Z"/>
          <path class="cls-1" d="M483.4,143c.2,8.9-9,12.7-15.9,8.1-6.3-4-6.2-13.9-.4-18.4,8.1-5.9,16.7,1,16.4,10.1v.2Z"/>
          <path class="cls-1" d="M187.1,502.7c0,8.4-8.9,13.3-15.8,8.5-5.8-3.8-6.5-12.9-1.3-17.5,7.3-6.5,17.3-.4,17.1,8.7v.2Z"/>
          <path class="cls-1" d="M51.2,174.5c7.1-.1,12.2,8.5,9.5,14.9-2.2,5.7-10,6.6-14.1,2.5-6.3-5.4-4.8-17.2,4.4-17.4h.2Z"/>
          <path class="cls-1" d="M21.6,296.2c7.5.1,12.2,8.1,8.3,14.6-4.7,8.9-17.2,4.5-18-4.6-.6-5.4,4.1-10.3,9.5-10h.2Z"/>
          <path class="cls-1" d="M402.3,128.1c1.4-2.2,5.4-1.4,7.8-.7,7.8,2.4,14.7,8.5,18.3,15.7,3.6,7.2,5.9,20.3-4.5,7.9-4.8-5.4-9.9-10.6-15.5-15.1-2.1-1.9-6.7-4.7-6.1-7.7h0Z"/>
          <path class="cls-1" d="M479.1,357.1c1.9-2.6,5.6-2.8,8.3-1.4,6.4,3.4,9.4,13.3,6,19.6-7.9,10.6-19.4-11.4-14.4-18h0Z"/>
          <path class="cls-1" d="M514.9,314.7c-9.4.6-14.1-14.8-4.6-18.5,12.5-4.4,16.8,15.9,4.8,18.4h-.2Z"/>
          <path class="cls-1" d="M270.1,285c-13.4,1.1-17.2-23.3-3-24.2,17.6-1.1,17.3,21.8,3.5,24.1,0,0-.4,0-.5,0Z"/>
          <path class="cls-1" d="M473.8,190.6c-.1-5.2,4.7-11.2,10.3-9.4,5,1.7,6.3,9.4,4.5,14.6-3.8,10.1-15.1,3.7-14.8-5.1v-.2Z"/>
          <path class="cls-1" d="M56.2,371.9c-10.3-.3-10.5-16.9-1.2-18.8,5.5-1.2,10.2,4.1,9.2,9.6-.5,4.2-3.5,9-7.9,9.2h-.2Z"/>
          <path class="cls-1" d="M367.6,498.3c-.6,3.3-3.5,6.4-7,5.6-5-1.2-8.7-10.1-6.6-15.7.9-2.8,3.4-5.3,6.4-5.6,4.2,0,5.9,4.1,7,8.1.6,2.5.8,5.1.3,7.4v.2Z"/>
          <path class="cls-1" d="M521.3,241.5c-.5,11.7-16.6,12-16.8,0,.7-10.5,16-10.5,16.8-.1v.2Z"/>
          <path class="cls-1" d="M35.3,155.6c1.3-10.9,17.2-8.1,17,2-1.2,10-17.1,7.6-17-1.8v-.2Z"/>
          <path class="cls-1" d="M428,460.3c.3,4.1-3.3,8.1-7.5,8-4.8,0-9.5-5-9-9.5,1.3-9,16-7.4,16.5,1.3v.2Z"/>
          <path class="cls-1" d="M119.7,78c4.8,0,10,4.4,8.5,9.5-1.1,4.1-5.9,6.4-10,5.3-8.2-2.2-8-14.6,1.2-14.7h.2Z"/>
          <path class="cls-1" d="M117.8,450.2c9.4.5,10.6,14.9.9,15.9-9.4.4-10.5-15.4-1-15.9h.2Z"/>
          <path class="cls-1" d="M426.6,88c0,3.8-3.4,7.1-7.3,6.2-4.9-1-8.7-7.2-7.3-11.7,3.4-8.6,15-2.4,14.5,5.3v.2Z"/>
          <path class="cls-1" d="M180.1,61.3c-6.7-.3-7.4-8.9-1.9-11.6,3.1-1.7,8.1-1,10.3,1.6,4.4,5.4-2.9,10.7-8.2,10h-.2Z"/>
          <path class="cls-1" d="M493.8,165.7c4.1,0,8.5,3.8,6.2,7.9-2.3,3.9-8.8,5.3-12.4,3.2-6-3.9.4-11.7,6.1-11.1h.2Z"/>
          <path class="cls-1" d="M239.1,531.1c-3.5-.2-5.9-3-5.6-6.6.2-3,1.7-7,5.2-7.2,8.1,0,9.6,13.5.7,13.8h-.2Z"/>
          <path class="cls-1" d="M307,523.6c.1,3.5-2.7,7.8-6.6,6.3-3.7-1.5-5.4-7.4-3.8-11.2,3.3-6.9,10.7-1.1,10.4,4.8v.2Z"/>
          <path class="cls-1" d="M236.1,30.5c-.1-7.8,8.9-10.1,11.6-2.6.9,3.1-.9,7.6-3.7,8.8-3.9,1.7-8-2.1-7.9-6v-.2Z"/>
          <path class="cls-1" d="M302.5,35.5c-4.5,2.6-9.5-3.2-7.5-7.6,1-2.2,3.7-2.7,5.8-2.2,4.9.7,5.4,7.2,1.8,9.7h-.1Z"/>
          <path class="cls-1" d="M27.1,239.2c-.4,5.8-10.6,4.9-10.7-.5.9-6.4,11.3-8,10.7.3v.2Z"/>
          <path class="cls-1" d="M263.4,315.1c-1.9,1.5-6.4.3-9,0-7.9-1.4-15.6-4.1-21.4-9.6-11.8-11.9-17.2-30.5-12.3-46.7,3-10.2,8.5-20.1,17.2-26,15-10.1,34.8-12.2,51.3-4.5,17.8,8.1,31.9,26.8,30.4,47-.8,12.7-5.8,25.4-15,34.4-5.5,5.4-11.9,9.7-17.8,14.7-14.6,13-26.8,11.2-44.7,7.9-6.6-1.1-13-2.2-18.4-5.7-9.1-6.1-13.8-16.7-17.4-26.7-8.8-22-4.9-41.5,4.9-62.3,7.2-16.8,24.4-22.7,40.3-28.5,12.9-5.2,22.3-7.1,35.6-2,20.4,6.7,37.9,21.8,45.5,42.1,5.8,13.3,7.9,25.3,3.1,39.2-3.4,11-6.5,22.4-13.9,31.5-10.9,13.4-32.6,27.9-49.3,32.3-7.5,1.6-15.3.9-23-.2-5.4-.9-11.3-1.7-16.2-4.2-8.8-5.3-.5-9.2,7-8,8.8,1,17.6,3.4,26.5,2.9,9-.4,16.7-5.4,24.3-9.9,10.3-5.7,20.3-12.5,26.4-22.9,5.9-9.6,12.4-29.6,11-40.8-2.7-17-11.4-35.6-26.8-44.4-9-4.7-18.7-9-28.9-10.1-11.4-1.2-38.2,7.6-46.2,15.9-8.1,7.7-14.8,29-15.7,40.2-.9,12.7,7,33.7,16.4,42.6,8.9,8.7,30.4,13.7,42.5,11.3,10.3-2.1,18.4-9.8,25.5-17.1,13-13.9,20.4-32.4,11.4-50.3-14.6-32.5-60.8-33.9-74.4.2-8.6,21.3,2,42.1,22.2,51.5,2,1.3,9.5,4.2,9.4,6.5h0Z"/>
          <path class="cls-1" d="M247,362.8c2.1-2.2,8.7-.9,11.8-.9,6.4.4,12.9,0,19.1-1.7,20.1-5.9,42.5-22.4,54.4-39.9,4.2-6.7,5.5-14.6,8.2-21.9,2.5-6.9,6.2-13.6,6.7-20.8.9-10.8-3.9-20.7-7-30.8-1-3.2-2-6.5-3.2-9.7-6.6-18.7-26.9-29-43.7-37.1-9.8-4.5-21-8.9-31.7-5.3-6.9,2.2-12.7,7-19.5,9.5-5.8,2.3-12.1,3.6-17.7,6.5-4.4,2.3-8.5,5.2-11.9,8.7-5.1,5.2-8.2,11.9-11.5,18.4-2.8,5.6-5.5,11.3-6.9,17.4-4.1,16.3-2.4,28.4,3.1,44.2,2.7,8.2,5.2,16.5,9.7,23.9,2.1,3.5,4.9,6.5,7.4,9.7,1.5,2.1,3.3,4.6,3.5,7.2,0,3.3-3.6,3.2-6,1.9-4.1-1.9-7.6-5.8-10.3-9.5-9.1-12.8-14.8-27.9-18.7-43-2.6-9.2-3.3-19-.5-28.2,2.3-8.4,5.8-16.3,9.7-24,3.2-6.3,5.8-12.9,9.8-18.6,3.9-5.7,8.8-10.8,14.5-14.7,5.9-4,13-6,19.7-8.7,5.9-2.3,11.5-5.1,17.1-7.9,8-4.1,16.7-7,25.4-4.1,9.1,3.1,17.6,7.7,26.1,12.3,5.5,3.1,10.8,6.7,16.2,10,5.4,3.3,10.8,7,14.6,12.2,6.8,9,11,19.4,15,29.8,4.6,10.3,9.8,21.5,6.8,33-1.4,6.3-5.3,11.8-7.5,17.9-1.9,4.7-2.8,9.8-4,14.8-2.8,11.7-10,21.9-19,29.7-7.5,6.6-15.4,13-23.9,18.4-13.9,8-32.9,16.6-48.5,8.7-2.4-1.3-7.9-4.2-7.2-7.2h0Z"/>
          <path class="cls-1" d="M267.7,251.8c-16.2.5-24.3,20-15.3,32.8,7.3,11.3,22.7,12.4,32,3,14.5-13.8,2.7-37-16.5-35.7h-.2ZM270.8,242.2c14.8-.4,28.4,12.8,30,27.3.7,6.3-1.1,12.6-4,18.2-13,26.3-42.6,22.1-55.5-1.9-6-10.1-4.1-22.4,3.1-31.4,6-8,16.6-12.2,26.2-12.2h.2Z"/>
        </g>
        <g>
          <g>
            <path class="cls-1" d="M605.3,354.9h19v11.2h-33.5v-59.5h14.5v48.3Z"/>
            <path class="cls-1" d="M673,355.6h-22.2l-3.6,10.5h-15.2l21.5-59.5h16.8l21.5,59.5h-15.3l-3.6-10.5ZM669.3,344.4l-7.4-21.8-7.3,21.8h14.7Z"/>
            <path class="cls-1" d="M746.6,340.7c2.1,2.7,3.1,5.7,3.1,9.2,0,5-1.7,8.9-5.2,11.8-3.5,2.9-8.3,4.4-14.5,4.4h-27.7v-59.5h26.8c6,0,10.8,1.4,14.2,4.2,3.4,2.8,5.1,6.5,5.1,11.3s-.9,6.4-2.8,8.7c-1.8,2.3-4.3,3.9-7.3,4.8,3.4.7,6.2,2.4,8.3,5.1ZM716.8,330.7h9.5c2.4,0,4.2-.5,5.5-1.6,1.3-1,1.9-2.6,1.9-4.6s-.6-3.6-1.9-4.7c-1.3-1.1-3.1-1.6-5.5-1.6h-9.5v12.5ZM733.1,352.7c1.3-1.1,2-2.7,2-4.8s-.7-3.7-2.1-4.9c-1.4-1.2-3.3-1.8-5.7-1.8h-10.5v13.1h10.7c2.4,0,4.3-.6,5.6-1.7Z"/>
            <path class="cls-1" d="M774.2,362.8c-4.7-2.6-8.4-6.2-11.1-10.9-2.7-4.7-4.1-9.9-4.1-15.7s1.4-11,4.1-15.7c2.7-4.6,6.4-8.2,11.1-10.8,4.7-2.6,9.8-3.9,15.4-3.9s10.7,1.3,15.4,3.9c4.7,2.6,8.3,6.2,11,10.8,2.7,4.6,4,9.9,4,15.7s-1.4,11.1-4.1,15.7c-2.7,4.7-6.4,8.3-11,10.9-4.6,2.6-9.7,3.9-15.3,3.9s-10.7-1.3-15.4-3.9ZM801,348.7c2.9-3.2,4.3-7.3,4.3-12.5s-1.4-9.4-4.3-12.6c-2.9-3.1-6.7-4.7-11.4-4.7s-8.6,1.6-11.5,4.7c-2.9,3.1-4.3,7.3-4.3,12.6s1.4,9.4,4.3,12.6c2.9,3.1,6.7,4.7,11.5,4.7s8.5-1.6,11.4-4.7Z"/>
            <path class="cls-1" d="M861.7,366.1l-12.4-22.4h-3.5v22.4h-14.5v-59.5h24.3c4.7,0,8.7.8,12,2.5,3.3,1.6,5.8,3.9,7.4,6.7,1.6,2.9,2.5,6,2.5,9.5s-1.1,7.5-3.3,10.6c-2.2,3.1-5.5,5.3-9.9,6.6l13.7,23.6h-16.3ZM845.8,333.4h9c2.7,0,4.6-.6,6-1.9,1.3-1.3,2-3.1,2-5.5s-.7-4-2-5.3c-1.3-1.3-3.3-1.9-6-1.9h-9v14.7Z"/>
            <path class="cls-1" d="M927.6,355.6h-22.2l-3.6,10.5h-15.2l21.5-59.5h16.8l21.5,59.5h-15.3l-3.6-10.5ZM923.9,344.4l-7.4-21.8-7.3,21.8h14.7Z"/>
            <path class="cls-1" d="M993.5,306.6v11.6h-15.8v47.9h-14.5v-47.9h-15.8v-11.6h46Z"/>
            <path class="cls-1" d="M1013.3,362.8c-4.7-2.6-8.4-6.2-11.1-10.9-2.7-4.7-4.1-9.9-4.1-15.7s1.4-11,4.1-15.7c2.7-4.6,6.4-8.2,11.1-10.8,4.7-2.6,9.8-3.9,15.4-3.9s10.7,1.3,15.4,3.9c4.7,2.6,8.3,6.2,11,10.8,2.7,4.6,4,9.9,4,15.7s-1.4,11.1-4.1,15.7c-2.7,4.7-6.4,8.3-11,10.9-4.6,2.6-9.7,3.9-15.3,3.9s-10.7-1.3-15.4-3.9ZM1040,348.7c2.9-3.2,4.3-7.3,4.3-12.5s-1.4-9.4-4.3-12.6c-2.9-3.1-6.7-4.7-11.4-4.7s-8.6,1.6-11.5,4.7c-2.9,3.1-4.3,7.3-4.3,12.6s1.4,9.4,4.3,12.6c2.9,3.1,6.7,4.7,11.5,4.7s8.5-1.6,11.4-4.7Z"/>
            <path class="cls-1" d="M1101.6,366.1l-12.4-22.4h-3.5v22.4h-14.5v-59.5h24.3c4.7,0,8.7.8,12,2.5,3.3,1.6,5.8,3.9,7.4,6.7,1.6,2.9,2.5,6,2.5,9.5s-1.1,7.5-3.3,10.6c-2.2,3.1-5.5,5.3-9.9,6.6l13.7,23.6h-16.3ZM1085.7,333.4h9c2.7,0,4.6-.6,6-1.9,1.3-1.3,2-3.1,2-5.5s-.7-4-2-5.3c-1.3-1.3-3.3-1.9-6-1.9h-9v14.7Z"/>
            <path class="cls-1" d="M1178.3,306.6l-20.6,39.8v19.7h-14.5v-19.7l-20.6-39.8h16.4l11.5,24.9,11.4-24.9h16.3Z"/>
          </g>
          <g>
            <path class="cls-1" d="M656.3,224.9c-1.6,1.6-3.7,2.8-6.3,3.5-2.6.7-5,1.2-7.3,1.3v1.4c2.3-.2,4.7-.1,7.4.2,2.6.3,4.9,1.2,6.7,2.6,2.1,1.6,3.7,3.5,4.9,5.7,1.2,2.2,1.8,4.8,1.8,7.7v17.9h-17.2c-2.6,0-4.8-.8-6.4-2.3-1.6-1.6-2.4-3.5-2.4-5.9s.3-5.6,1-7.6c.7-2,1-4.2,1-6.6s-1.4-5.5-4.2-7.3c-2.8-1.8-6.1-2.8-9.9-2.8-3.3-.2-6.1-.5-8.4-1-2.3-.5-4.3-1.1-5.9-1.8.2,2.3.5,4.1,1.1,5.5.5,1.4,1.1,2.9,1.7,4.3.6,1.5,1.2,3.1,1.6,5,.5,1.9.7,4.4.7,7.5s.2,3.5.7,5c.5,1.6,1.2,3,2.3,4.2,1.4,1.6,2.1,2.6,2.1,3.1,0,.4-1,.6-2.8.6h-27.2v-85.1h38.6c10.6,0,18.7,2.3,24.4,6.9,5.7,4.6,8.5,11.1,8.5,19.5s-2.1,13.9-6.4,18.3ZM612.9,218.6c3.9,1.5,7.5,2.2,10.8,2.1,3.3-.1,6.2-.9,8.6-2.4,2.4-1.5,4.3-3.5,5.7-6.2,1.4-2.7,2.1-5.9,2.1-9.6s-1.1-7-3.3-9.1c-2.2-2.1-5-3.2-8.3-3.2s-3,.3-4.5,1c-1.5.7-2.8,1.6-3.9,2.8-1.1,1.2-2.1,2.7-2.8,4.3-.7,1.7-1.1,3.4-1.1,5.3s0,3.7-.3,5.2c-.2,1.5-.5,2.8-.8,4-.3,1.1-.7,2.2-1.1,3.1-.4.9-.8,1.8-1.1,2.8Z"/>
            <path class="cls-1" d="M709.8,244c0,1.9.2,3.7.5,5.4.3,1.7.9,3.2,1.8,4.5.9,1.3,2,2.3,3.4,3.1,1.4.8,3.2,1.1,5.4,1.1s4.4-.5,5.8-1.6c1.4-1.1,2.6-2.4,3.4-4,.9-1.6,1.6-3.4,2.1-5.3.6-1.9,1.2-3.7,1.8-5.3.7-1.6,1.5-3,2.4-4,.9-1.1,2.3-1.6,4-1.6s2.9.8,4,2.3c1.2,1.5,1.8,3.9,1.8,7.1v11.1c0,2.6-1.1,4.6-3.4,6.1-2.3,1.5-4.9,2.7-8,3.5-3.1.8-6.2,1.3-9.2,1.6-3.1.3-5.5.4-7.2.4-6.9,0-13.1-1.1-18.5-3.3-5.4-2.2-10-5.3-13.8-9.4-3.7-4-6.6-8.8-8.5-14.4-1.9-5.6-2.9-11.7-2.9-18.4s1.2-12.8,3.5-18.4c2.3-5.5,5.5-10.3,9.5-14.3,4-4,8.8-7.1,14.4-9.3,5.6-2.2,11.6-3.3,18.2-3.3s13.8,1.2,19.7,3.7c3.2,1.4,4.8,4,4.8,7.7v12.6c0,2.7-.8,4.7-2.3,6s-3,1.8-4.5,1.8-3.1-.6-4.2-1.8c-1.1-1.2-2-2.6-2.8-4.4-.8-1.7-1.5-3.6-2.1-5.7-.7-2-1.4-3.9-2.3-5.7-.9-1.7-1.9-3.2-3.2-4.4-1.3-1.2-2.9-1.8-4.9-1.8-4,0-6.9,1.3-8.8,3.9-1.9,2.6-2.8,5.8-2.8,9.7s-.4,4.8-1.1,6.5c-.7,1.7-1.5,3.2-2.5,4.5-.9,1.3-1.9,2.5-2.9,3.6s-1.8,2.3-2.3,3.6l-1-4.1h38.2v10.1c0,2-.7,3.6-2.1,5-1.4,1.3-3.2,2-5.5,2h-1.1c-7.6,0-14.3-1.2-20.1-3.5-5.9-2.3-10.3-5.1-13.2-8.4l-1.4,1.6c2,2.3,4,4.1,6.2,5.6s4,3,5.7,4.5c1.7,1.6,3.1,3.4,4.3,5.5,1.1,2.1,1.7,4.9,1.7,8.5Z"/>
            <path class="cls-1" d="M787.5,245.3c0,2.1.4,4.7,1.1,7.8.7,3.1,2.1,5.8,4,8.1,1.6,1.9,2.4,3,2.3,3.5,0,.4-1.2.6-3.3.6h-30.5v-85.1h41c1.9,0,3.9,0,6.1.1,2.2,0,4.2.5,6.2,1.2,1.9.7,3.5,1.8,4.8,3.3,1.3,1.5,1.9,3.6,1.9,6.4v9.8c0,2.7-.8,4.7-2.3,6-1.5,1.2-3,1.8-4.5,1.8s-3.1-.5-4.2-1.6c-1.1-1-2-2.3-2.8-3.8-.8-1.5-1.5-3.2-2.1-5-.7-1.8-1.4-3.5-2.3-5-.9-1.5-1.9-2.8-3.2-3.8-1.3-1-2.9-1.6-4.9-1.6-4,0-6.9,1.3-8.8,3.9-1.9,2.6-2.8,5.8-2.8,9.7s-.2,3.9-.6,5.5c-.4,1.6-.9,3.1-1.5,4.3s-1.2,2.4-1.8,3.5c-.6,1-1.2,2.1-1.6,3.1l-1.4-4.8h38.2v10.1c0,2-.7,3.6-2.1,5-1.4,1.3-3.2,2-5.5,2h-1.1c-7.6,0-14.3-1.2-20.1-3.5-5.9-2.3-10.3-5.1-13.2-8.4l-1.4,1.6c2,2.3,4,4.1,6,5.5,2,1.4,3.8,2.9,5.3,4.5,1.6,1.6,2.8,3.5,3.8,5.8.9,2.3,1.4,5.5,1.4,9.6Z"/>
            <path class="cls-1" d="M828.9,222.6c0-6.7,1-12.8,2.9-18.4,1.9-5.5,4.7-10.3,8.3-14.3,3.6-4,7.9-7.1,12.9-9.3,5-2.2,10.5-3.3,16.6-3.3s11.7,1.1,16.7,3.3c5,2.2,9.2,5.3,12.8,9.3,3.6,4,6.4,8.7,8.3,14.3,1.9,5.5,2.9,11.7,2.9,18.4s-1,12.9-2.9,18.4c-1.9,5.6-4.7,10.4-8.3,14.4-3.6,4-7.9,7.1-12.8,9.4-5,2.2-10.5,3.3-16.7,3.3s-11.6-1.1-16.6-3.3c-5-2.2-9.3-5.3-12.9-9.4-3.6-4-6.4-8.8-8.3-14.4-1.9-5.6-2.9-11.7-2.9-18.4ZM861.2,245.6c0,3.4.9,6.3,2.8,8.8,1.9,2.5,5,3.7,9.4,3.7s7-1.2,9.1-3.7c2.1-2.5,3.2-5.5,3.2-9.2s-.5-4.3-1.5-6c-1-1.7-2.1-3.4-3.2-5-1.1-1.7-2.2-3.5-3.2-5.4-1-1.9-1.5-4.3-1.5-7s.5-4.9,1.5-6.8,2.1-3.7,3.2-5.3c1.1-1.7,2.2-3.3,3.2-5,1-1.7,1.5-3.7,1.5-6,0-3.6-.9-6.6-2.8-9.2-1.9-2.5-5-3.8-9.4-3.8s-7,1.2-9.2,3.7c-2.1,2.5-3.2,5.5-3.2,9.2s-.5,5.8-1.5,7.7c-1,1.9-2.1,3.6-3.2,5-1.1,1.5-2.2,3-3.2,4.5s-1.5,3.7-1.5,6.3.5,4.8,1.5,6.3c1,1.6,2.1,3.1,3.2,4.5,1.1,1.5,2.2,3.1,3.2,5,1,1.8,1.5,4.4,1.5,7.6Z"/>
            <path class="cls-1" d="M989.4,224.9c-1.6,1.6-3.7,2.8-6.3,3.5-2.6.7-5,1.2-7.3,1.3v1.4c2.3-.2,4.7-.1,7.4.2,2.6.3,4.9,1.2,6.7,2.6,2.1,1.6,3.7,3.5,4.9,5.7,1.2,2.2,1.8,4.8,1.8,7.7v17.9h-17.2c-2.6,0-4.8-.8-6.4-2.3-1.6-1.6-2.4-3.5-2.4-5.9s.3-5.6,1-7.6c.7-2,1-4.2,1-6.6s-1.4-5.5-4.2-7.3c-2.8-1.8-6.1-2.8-9.9-2.8-3.3-.2-6.1-.5-8.4-1-2.3-.5-4.3-1.1-5.9-1.8.2,2.3.5,4.1,1.1,5.5s1.1,2.9,1.7,4.3c.6,1.5,1.2,3.1,1.6,5,.5,1.9.7,4.4.7,7.5s.2,3.5.7,5c.5,1.6,1.2,3,2.3,4.2,1.4,1.6,2.1,2.6,2.1,3.1,0,.4-1,.6-2.8.6h-27.2v-85.1h38.6c10.6,0,18.7,2.3,24.4,6.9,5.7,4.6,8.5,11.1,8.5,19.5s-2.1,13.9-6.4,18.3ZM946,218.6c3.9,1.5,7.5,2.2,10.8,2.1,3.3-.1,6.2-.9,8.6-2.4,2.4-1.5,4.3-3.5,5.7-6.2,1.4-2.7,2.1-5.9,2.1-9.6s-1.1-7-3.3-9.1c-2.2-2.1-5-3.2-8.3-3.2s-3,.3-4.5,1c-1.5.7-2.8,1.6-3.9,2.8-1.1,1.2-2.1,2.7-2.8,4.3-.7,1.7-1.1,3.4-1.1,5.3s0,3.7-.3,5.2c-.2,1.5-.5,2.8-.8,4-.3,1.1-.7,2.2-1.1,3.1-.4.9-.8,1.8-1.1,2.8Z"/>
            <path class="cls-1" d="M1043,244c0,1.9.2,3.7.5,5.4.3,1.7.9,3.2,1.8,4.5.9,1.3,2,2.3,3.4,3.1,1.4.8,3.2,1.1,5.4,1.1s4.4-.5,5.8-1.6c1.4-1.1,2.6-2.4,3.4-4,.9-1.6,1.6-3.4,2.1-5.3.6-1.9,1.2-3.7,1.8-5.3.7-1.6,1.5-3,2.4-4,.9-1.1,2.3-1.6,4-1.6s2.9.8,4,2.3c1.2,1.5,1.8,3.9,1.8,7.1v11.1c0,2.6-1.1,4.6-3.4,6.1-2.3,1.5-4.9,2.7-8,3.5-3.1.8-6.2,1.3-9.2,1.6-3.1.3-5.5.4-7.2.4-6.9,0-13.1-1.1-18.5-3.3-5.4-2.2-10-5.3-13.8-9.4-3.7-4-6.6-8.8-8.5-14.4-1.9-5.6-2.9-11.7-2.9-18.4s1.2-12.8,3.5-18.4c2.3-5.5,5.5-10.3,9.5-14.3,4-4,8.8-7.1,14.4-9.3,5.6-2.2,11.6-3.3,18.2-3.3s13.8,1.2,19.7,3.7c3.2,1.4,4.8,4,4.8,7.7v12.6c0,2.7-.8,4.7-2.3,6s-3,1.8-4.5,1.8-3.1-.6-4.2-1.8c-1.1-1.2-2-2.6-2.8-4.4-.8-1.7-1.5-3.6-2.1-5.7-.7-2-1.4-3.9-2.3-5.7-.9-1.7-1.9-3.2-3.2-4.4-1.3-1.2-2.9-1.8-4.9-1.8-4,0-6.9,1.3-8.8,3.9-1.9,2.6-2.8,5.8-2.8,9.7s-.4,4.8-1.1,6.5c-.7,1.7-1.5,3.2-2.5,4.5-.9,1.3-1.9,2.5-2.9,3.6s-1.8,2.3-2.3,3.6l-1-4.1h38.2v10.1c0,2-.7,3.6-2.1,5-1.4,1.3-3.2,2-5.5,2h-1.1c-7.6,0-14.3-1.2-20.1-3.5-5.9-2.3-10.3-5.1-13.2-8.4l-1.4,1.6c2,2.3,4,4.1,6.2,5.6,2.1,1.5,4,3,5.7,4.5,1.7,1.6,3.1,3.4,4.3,5.5,1.1,2.1,1.7,4.9,1.7,8.5Z"/>
            <path class="cls-1" d="M1118.9,190.3c-3.4,0-5.8.6-7.2,1.9-1.4,1.3-2.1,2.9-2.1,4.9s1.2,3.5,3.5,5.3c2.3,1.7,5.3,3.5,8.8,5.3,3.5,1.8,7.4,3.8,11.4,5.9,4.1,2.1,7.9,4.5,11.4,7.1,3.5,2.6,6.5,5.6,8.8,8.9,2.3,3.4,3.5,7.2,3.5,11.4s-.9,9.7-2.7,13.2c-1.8,3.5-4.2,6.3-7.3,8.4-3.1,2.1-6.7,3.5-10.9,4.4-4.2.9-8.7,1.3-13.5,1.3s-6.3-.7-10.1-2c-3.8-1.3-7.3-3.2-10.6-5.7-3.3-2.5-6-5.5-8.3-9-2.3-3.5-3.4-7.4-3.4-11.6v-5.7c0-1,.2-1.8.6-2.4.4-.6,1.3-.9,2.6-.9s1.8.1,2.7.4c.9.2,1.7.5,2.6.6,1.5.4,3,.7,4.4.9,1.4.2,2.8.5,4.2.9,1.4.3,2.7.8,3.9,1.4,1.2.6,2.4,1.6,3.5,2.9,1.4,1.5,2.5,3.5,3.3,5.8.8,2.4,1.6,4.6,2.5,6.7.9,2.1,2.1,4,3.6,5.5,1.5,1.6,3.7,2.3,6.5,2.3s4.4-.6,5.8-1.9,2.1-3.2,2.1-5.9-.4-2.8-1.1-3.8c-.7-1-1.6-2-2.6-2.8-1-.8-2.2-1.5-3.3-2.2-1.2-.7-2.2-1.4-3.1-2.3-1.4-1.3-2.6-2.7-3.5-4.1-.9-1.4-1.9-2.7-2.8-4-.9-1.2-1.9-2.3-3.1-3.3-1.1-1-2.6-1.8-4.4-2.3-3.4-1.1-6.5-2.4-9.2-3.7-2.7-1.3-5-2.9-6.9-4.8-1.9-1.8-3.3-4.1-4.3-6.7-1-2.6-1.5-5.7-1.5-9.4,0-7.1,2.6-12.6,7.8-16.5,5.2-3.9,12.3-5.9,21.3-5.9s6.7.4,10.6,1.1c3.8.8,7.4,1.9,10.6,3.3,3.3,1.5,6,3.3,8.2,5.5,2.2,2.2,3.3,4.8,3.3,7.7v10.5c0,3.2-.3,5.5-1,6.9-.7,1.4-1.9,2.1-3.7,2.1s-3.7-.6-5.4-1.9c-1.7-1.3-3.3-2.9-4.9-4.8s-3.1-3.9-4.7-6.2c-1.6-2.2-3.2-4.3-4.8-6.2-1.7-1.9-3.4-3.5-5.3-4.8-1.8-1.3-3.9-1.9-6-1.9Z"/>
            <path class="cls-1" d="M1243.9,180.2v11.6c0,1.7-.3,3.2-1,4.4-.7,1.2-1.5,2.2-2.5,2.9s-2.1,1.2-3.4,1.6c-1.3.3-2.6.5-3.9.5h-.7c-2.4,0-4.8-.6-7.4-1.7-2.6-1.1-4.9-2.4-7.1-3.8s-4.1-2.8-5.7-4.2c-1.6-1.4-2.6-2.3-3.1-2.8l-1.4,1.6c1,.9,2.3,1.9,3.7,3.1,1.4,1.2,2.8,2.6,4,4.2,1.3,1.6,2.4,3.4,3.3,5.4.9,2,1.4,4.3,1.4,6.8s-.3,4.4-1,6.2c-.7,1.8-1.4,3.5-2.1,5.3-.8,1.8-1.5,3.7-2.1,5.9-.7,2.2-1,4.9-1,8.2s.3,4.8.9,7.2c.6,2.4,1.3,4.7,2,7,.7,2.2,1.4,4.3,2,6.2.6,1.9.9,3.5,1,5,0,1.4-.3,2.6-1,3.4-.7.9-2.1,1.3-4,1.3h-19.3c0,.1,0-74.5,0-74.5-1.1.9-2.5,2-4.1,3.2-1.6,1.2-3.3,2.3-5.2,3.4-1.8,1.1-3.8,2-5.8,2.8-2,.8-4,1.1-5.9,1.1h-.7c-1.2,0-2.5-.2-3.8-.5-1.3-.3-2.5-.9-3.5-1.6s-1.8-1.7-2.5-2.9c-.7-1.2-1-2.7-1-4.4v-11.6h80.9Z"/>
            <path class="cls-1" d="M1281.1,244c0,1.9.2,3.7.5,5.4.3,1.7.9,3.2,1.8,4.5.9,1.3,2,2.3,3.4,3.1,1.4.8,3.2,1.1,5.4,1.1s4.4-.5,5.8-1.6c1.4-1.1,2.6-2.4,3.4-4,.9-1.6,1.6-3.4,2.1-5.3.6-1.9,1.2-3.7,1.8-5.3.7-1.6,1.5-3,2.4-4,.9-1.1,2.3-1.6,4-1.6s2.9.8,4,2.3c1.2,1.5,1.8,3.9,1.8,7.1v11.1c0,2.6-1.1,4.6-3.4,6.1-2.3,1.5-4.9,2.7-8,3.5-3.1.8-6.2,1.3-9.2,1.6-3.1.3-5.5.4-7.2.4-6.9,0-13.1-1.1-18.5-3.3-5.4-2.2-10-5.3-13.8-9.4-3.7-4-6.6-8.8-8.5-14.4-1.9-5.6-2.9-11.7-2.9-18.4s1.2-12.8,3.5-18.4c2.3-5.5,5.5-10.3,9.5-14.3,4-4,8.8-7.1,14.4-9.3,5.6-2.2,11.6-3.3,18.2-3.3s13.8,1.2,19.7,3.7c3.2,1.4,4.8,4,4.8,7.7v12.6c0,2.7-.8,4.7-2.3,6s-3,1.8-4.5,1.8-3.1-.6-4.2-1.8c-1.1-1.2-2-2.6-2.8-4.4-.8-1.7-1.5-3.6-2.1-5.7-.7-2-1.4-3.9-2.3-5.7-.9-1.7-1.9-3.2-3.2-4.4-1.3-1.2-2.9-1.8-4.9-1.8-4,0-6.9,1.3-8.8,3.9-1.9,2.6-2.8,5.8-2.8,9.7s-.4,4.8-1.1,6.5c-.7,1.7-1.5,3.2-2.5,4.5-.9,1.3-1.9,2.5-2.9,3.6s-1.8,2.3-2.3,3.6l-1-4.1h38.2v10.1c0,2-.7,3.6-2.1,5-1.4,1.3-3.2,2-5.5,2h-1.1c-7.6,0-14.3-1.2-20.1-3.5-5.9-2.3-10.3-5.1-13.2-8.4l-1.4,1.6c2,2.3,4,4.1,6.2,5.6s4,3,5.7,4.5c1.7,1.6,3.1,3.4,4.3,5.5,1.1,2.1,1.7,4.9,1.7,8.5Z"/>
            <path class="cls-1" d="M1397.5,224.9c-1.6,1.6-3.7,2.8-6.3,3.5s-5,1.2-7.3,1.3v1.4c2.3-.2,4.7-.1,7.4.2,2.6.3,4.9,1.2,6.7,2.6,2.1,1.6,3.7,3.5,4.9,5.7,1.2,2.2,1.8,4.8,1.8,7.7v17.9h-17.2c-2.6,0-4.8-.8-6.4-2.3-1.6-1.6-2.4-3.5-2.4-5.9s.3-5.6,1-7.6c.7-2,1-4.2,1-6.6s-1.4-5.5-4.2-7.3c-2.8-1.8-6.1-2.8-9.9-2.8-3.3-.2-6.1-.5-8.4-1-2.3-.5-4.3-1.1-5.9-1.8.2,2.3.5,4.1,1.1,5.5s1.1,2.9,1.7,4.3c.6,1.5,1.2,3.1,1.6,5,.5,1.9.7,4.4.7,7.5s.2,3.5.7,5c.5,1.6,1.2,3,2.3,4.2,1.4,1.6,2.1,2.6,2.1,3.1,0,.4-1,.6-2.8.6h-27.2v-85.1h38.6c10.6,0,18.7,2.3,24.4,6.9,5.7,4.6,8.5,11.1,8.5,19.5s-2.1,13.9-6.4,18.3ZM1354.1,218.6c3.9,1.5,7.5,2.2,10.8,2.1,3.3-.1,6.2-.9,8.6-2.4,2.4-1.5,4.3-3.5,5.7-6.2,1.4-2.7,2.1-5.9,2.1-9.6s-1.1-7-3.3-9.1c-2.2-2.1-5-3.2-8.3-3.2s-3,.3-4.5,1c-1.5.7-2.8,1.6-3.9,2.8-1.1,1.2-2.1,2.7-2.8,4.3-.7,1.7-1.1,3.4-1.1,5.3s0,3.7-.3,5.2c-.2,1.5-.5,2.8-.8,4-.3,1.1-.7,2.2-1.1,3.1-.4.9-.8,1.8-1.1,2.8Z"/>
            <path class="cls-1" d="M1445,190.3c-3.4,0-5.8.6-7.2,1.9s-2.1,2.9-2.1,4.9,1.2,3.5,3.5,5.3c2.3,1.7,5.3,3.5,8.8,5.3,3.5,1.8,7.4,3.8,11.4,5.9,4.1,2.1,7.9,4.5,11.4,7.1,3.5,2.6,6.5,5.6,8.8,8.9,2.3,3.4,3.5,7.2,3.5,11.4s-.9,9.7-2.7,13.2c-1.8,3.5-4.2,6.3-7.3,8.4-3.1,2.1-6.7,3.5-10.9,4.4-4.2.9-8.7,1.3-13.5,1.3s-6.3-.7-10.1-2c-3.8-1.3-7.3-3.2-10.6-5.7-3.3-2.5-6-5.5-8.3-9-2.3-3.5-3.4-7.4-3.4-11.6v-5.7c0-1,.2-1.8.6-2.4.4-.6,1.3-.9,2.6-.9s1.8.1,2.7.4c.9.2,1.7.5,2.6.6,1.5.4,3,.7,4.4.9,1.4.2,2.8.5,4.2.9,1.4.3,2.7.8,3.9,1.4,1.2.6,2.4,1.6,3.5,2.9,1.4,1.5,2.5,3.5,3.3,5.8.8,2.4,1.6,4.6,2.5,6.7.9,2.1,2.1,4,3.6,5.5,1.5,1.6,3.7,2.3,6.5,2.3s4.4-.6,5.8-1.9,2.1-3.2,2.1-5.9-.4-2.8-1.1-3.8c-.7-1-1.6-2-2.6-2.8-1-.8-2.2-1.5-3.3-2.2-1.2-.7-2.2-1.4-3.1-2.3-1.4-1.3-2.6-2.7-3.5-4.1-.9-1.4-1.9-2.7-2.8-4-.9-1.2-1.9-2.3-3.1-3.3-1.1-1-2.6-1.8-4.4-2.3-3.4-1.1-6.5-2.4-9.2-3.7-2.7-1.3-5-2.9-6.9-4.8-1.9-1.8-3.3-4.1-4.3-6.7-1-2.6-1.5-5.7-1.5-9.4,0-7.1,2.6-12.6,7.8-16.5,5.2-3.9,12.3-5.9,21.3-5.9s6.7.4,10.6,1.1c3.8.8,7.4,1.9,10.6,3.3,3.3,1.5,6,3.3,8.2,5.5,2.2,2.2,3.3,4.8,3.3,7.7v10.5c0,3.2-.3,5.5-1,6.9-.7,1.4-1.9,2.1-3.7,2.1s-3.7-.6-5.4-1.9c-1.7-1.3-3.3-2.9-4.9-4.8-1.6-1.9-3.1-3.9-4.7-6.2s-3.2-4.3-4.8-6.2c-1.7-1.9-3.4-3.5-5.3-4.8-1.8-1.3-3.9-1.9-6-1.9Z"/>
          </g>
        </g>
      </g>
    </g>
  </g>
</svg>